<?xml version="1.0" encoding="UTF-8"?>
<svg xmlns="http://www.w3.org/2000/svg" viewBox="0 0 64 64" width="64" height="64">
  <defs>
    <linearGradient id="eduGrad" x1="0" y1="0" x2="1" y2="1">
      <stop offset="0%" stop-color="#1E40AF"/>
      <stop offset="100%" stop-color="#1E3A5F"/>
    </linearGradient>
  </defs>
  <!-- Cap top (mortarboard) -->
  <polygon points="32,12 4,28 32,38 60,28" fill="url(#eduGrad)" stroke="#1E3A5F" stroke-width="1.5" stroke-linejoin="round"/>
  <!-- Cap band below -->
  <path d="M16 32 L16 44 Q16 50 32 52 Q48 50 48 44 L48 32 L32 38 L16 32 Z" fill="#2563EB" stroke="#1E40AF" stroke-width="1.5" stroke-linejoin="round"/>
  <!-- Button on top -->
  <circle cx="32" cy="14" r="2.5" fill="#FCD34D"/>
  <!-- Tassel string -->
  <path d="M32 14 Q38 16 50 18 L50 20 Q50 24 52 32 L52 38" fill="none" stroke="#FCD34D" stroke-width="2" stroke-linecap="round"/>
  <!-- Tassel end -->
  <path d="M50 36 L54 36 L53 44 L51 44 Z" fill="#FCD34D"/>
  <line x1="50" y1="44" x2="50" y2="48" stroke="#FCD34D" stroke-width="1" stroke-linecap="round"/>
  <line x1="52" y1="44" x2="52" y2="49" stroke="#FCD34D" stroke-width="1" stroke-linecap="round"/>
  <line x1="54" y1="44" x2="54" y2="47" stroke="#FCD34D" stroke-width="1" stroke-linecap="round"/>
</svg>