<?xml version="1.0" encoding="UTF-8"?>
<svg xmlns="http://www.w3.org/2000/svg" viewBox="0 0 64 64" width="64" height="64">
  <defs>
    <linearGradient id="popGrad" x1="0" y1="0" x2="0" y2="1">
      <stop offset="0%" stop-color="#A78BFA"/>
      <stop offset="100%" stop-color="#7C3AED"/>
    </linearGradient>
  </defs>
  <!-- Bucket body -->
  <path d="M16 28 L20 56 Q20 58 22 58 L42 58 Q44 58 44 56 L48 28 Z" fill="url(#popGrad)" stroke="#6D28D9" stroke-width="1.5" stroke-linejoin="round"/>
  <!-- Bucket stripes -->
  <path d="M17 34 L47 34" stroke="#DDD6FE" stroke-width="1.5" opacity="0.5"/>
  <path d="M18 42 L46 42" stroke="#DDD6FE" stroke-width="1.5" opacity="0.5"/>
  <path d="M19 50 L45 50" stroke="#DDD6FE" stroke-width="1.5" opacity="0.5"/>
  <!-- Popcorn kernels -->
  <circle cx="26" cy="24" r="6" fill="#FEF3C7" stroke="#F59E0B" stroke-width="1"/>
  <circle cx="38" cy="22" r="6.5" fill="#FEF3C7" stroke="#F59E0B" stroke-width="1"/>
  <circle cx="32" cy="18" r="6" fill="#FEF3C7" stroke="#F59E0B" stroke-width="1"/>
  <circle cx="22" cy="18" r="5" fill="#FFFBEB" stroke="#F59E0B" stroke-width="1"/>
  <circle cx="42" cy="18" r="5" fill="#FFFBEB" stroke="#F59E0B" stroke-width="1"/>
  <circle cx="32" cy="12" r="5.5" fill="#FEF3C7" stroke="#F59E0B" stroke-width="1"/>
  <circle cx="26" cy="12" r="4" fill="#FFFBEB" stroke="#F59E0B" stroke-width="0.8"/>
  <circle cx="38" cy="12" r="4.5" fill="#FFFBEB" stroke="#F59E0B" stroke-width="0.8"/>
  <!-- Bucket rim -->
  <rect x="14" y="26" width="36" height="5" rx="2.5" fill="#8B5CF6" stroke="#6D28D9" stroke-width="1"/>
</svg>