<?xml version="1.0" encoding="UTF-8"?>
<svg xmlns="http://www.w3.org/2000/svg" viewBox="0 0 64 64" width="64" height="64">
  <defs>
    <linearGradient id="foodGrad" x1="0" y1="0" x2="1" y2="1">
      <stop offset="0%" stop-color="#FF9A56"/>
      <stop offset="100%" stop-color="#E8722A"/>
    </linearGradient>
  </defs>
  <!-- Plate -->
  <ellipse cx="32" cy="35" rx="26" ry="24" fill="#FFF3E8" stroke="#FFD4A8" stroke-width="2"/>
  <ellipse cx="32" cy="35" rx="18" ry="16" fill="none" stroke="#FFE0BE" stroke-width="1.5"/>
  <!-- Fork (left) -->
  <g stroke="url(#foodGrad)" stroke-width="3" stroke-linecap="round" stroke-linejoin="round" fill="none" transform="rotate(-20, 24, 32)">
    <line x1="20" y1="48" x2="20" y2="18"/>
    <line x1="15" y1="18" x2="15" y2="26"/>
    <line x1="20" y1="18" x2="20" y2="26"/>
    <line x1="25" y1="18" x2="25" y2="26"/>
    <line x1="15" y1="26" x2="25" y2="26"/>
  </g>
  <!-- Knife (right) -->
  <g stroke="url(#foodGrad)" stroke-width="3" stroke-linecap="round" stroke-linejoin="round" fill="none" transform="rotate(20, 42, 32)">
    <line x1="44" y1="48" x2="44" y2="24"/>
    <path d="M44 24 Q44 16 40 16 Q38 16 38 20 L38 28 Q38 30 40 30 L44 30"/>
  </g>
</svg>