<?xml version="1.0" encoding="UTF-8"?>
<svg xmlns="http://www.w3.org/2000/svg" viewBox="0 0 64 64" width="64" height="64">
  <defs>
    <linearGradient id="fuelGrad" x1="0" y1="0" x2="1" y2="1">
      <stop offset="0%" stop-color="#FDBA74"/>
      <stop offset="100%" stop-color="#F97316"/>
    </linearGradient>
  </defs>
  <rect x="18" y="14" width="22" height="36" rx="5" fill="#FFF7ED" stroke="#FED7AA" stroke-width="2.5"/>
  <rect x="22" y="18" width="14" height="10" rx="2.5" fill="url(#fuelGrad)"/>
  <path d="M40 20H45C47.8 20 50 22.2 50 25V40C50 42.8 47.8 45 45 45H44" fill="none" stroke="#F97316" stroke-width="3" stroke-linecap="round"/>
  <path d="M44 45C44 48.3 41.3 51 38 51" fill="none" stroke="#FB923C" stroke-width="3" stroke-linecap="round"/>
  <path d="M29 31C26.5 33.5 25 35.8 25 39C25 42.3 27.7 45 31 45C34.3 45 37 42.3 37 39C37 35.8 35.5 33.5 33 31L31 28L29 31Z" fill="#FDBA74" stroke="#F97316" stroke-width="2"/>
</svg>
