<?xml version="1.0" encoding="UTF-8"?>
<svg xmlns="http://www.w3.org/2000/svg" viewBox="0 0 64 64" width="64" height="64">
  <defs>
    <linearGradient id="cartGrad" x1="0" y1="0" x2="1" y2="1">
      <stop offset="0%" stop-color="#22C55E"/>
      <stop offset="100%" stop-color="#15803D"/>
    </linearGradient>
  </defs>
  <!-- Cart body -->
  <path d="M14 18 L18 18 L24 44 L50 44 L54 24 L22 24" fill="none" stroke="url(#cartGrad)" stroke-width="3" stroke-linecap="round" stroke-linejoin="round"/>
  <!-- Cart basket fill -->
  <path d="M22 28 L24 44 L50 44 L54 28 Z" fill="#DCFCE7" stroke="none"/>
  <!-- Wheels -->
  <circle cx="28" cy="50" r="4" fill="#15803D" stroke="#166534" stroke-width="1.5"/>
  <circle cx="28" cy="50" r="1.5" fill="#DCFCE7"/>
  <circle cx="46" cy="50" r="4" fill="#15803D" stroke="#166534" stroke-width="1.5"/>
  <circle cx="46" cy="50" r="1.5" fill="#DCFCE7"/>
  <!-- Item: apple (red circle) -->
  <circle cx="30" cy="34" r="5" fill="#EF4444"/>
  <path d="M30 29 Q32 26 34 28" fill="none" stroke="#22C55E" stroke-width="1.5" stroke-linecap="round"/>
  <!-- Item: carrot (orange) -->
  <path d="M40 38 L44 28 L42 28 Z" fill="#FB923C" stroke="#EA580C" stroke-width="0.8" stroke-linejoin="round"/>
  <path d="M42 28 Q44 24 40 24" fill="none" stroke="#22C55E" stroke-width="1.5" stroke-linecap="round"/>
  <!-- Item: bread/box -->
  <rect x="46" y="32" width="6" height="8" rx="1.5" fill="#FCD34D" stroke="#D97706" stroke-width="0.8"/>
  <!-- Handle grip -->
  <circle cx="14" cy="18" r="2" fill="#15803D"/>
</svg>