<?xml version="1.0" encoding="UTF-8"?>
<svg xmlns="http://www.w3.org/2000/svg" viewBox="0 0 64 64" width="64" height="64">
  <defs>
    <linearGradient id="pawGrad" x1="0" y1="0" x2="1" y2="1">
      <stop offset="0%" stop-color="#D97706"/>
      <stop offset="100%" stop-color="#92400E"/>
    </linearGradient>
  </defs>
  <!-- Main pad -->
  <path d="M32 38 Q22 32 18 38 Q14 44 20 50 Q24 54 32 54 Q40 54 44 50 Q50 44 46 38 Q42 32 32 38 Z" fill="url(#pawGrad)"/>
  <!-- Top left toe -->
  <ellipse cx="18" cy="24" rx="6" ry="7" fill="url(#pawGrad)" transform="rotate(-15, 18, 24)"/>
  <!-- Top right toe -->
  <ellipse cx="46" cy="24" rx="6" ry="7" fill="url(#pawGrad)" transform="rotate(15, 46, 24)"/>
  <!-- Middle left toe -->
  <ellipse cx="26" cy="18" rx="5.5" ry="7" fill="url(#pawGrad)" transform="rotate(-5, 26, 18)"/>
  <!-- Middle right toe -->
  <ellipse cx="38" cy="18" rx="5.5" ry="7" fill="url(#pawGrad)" transform="rotate(5, 38, 18)"/>
  <!-- Highlight on main pad -->
  <ellipse cx="30" cy="42" rx="5" ry="4" fill="white" opacity="0.15"/>
</svg>