<?xml version="1.0" encoding="UTF-8"?>
<svg xmlns="http://www.w3.org/2000/svg" viewBox="0 0 64 64" width="64" height="64">
  <defs>
    <linearGradient id="walletGrad" x1="0" y1="0" x2="0" y2="1">
      <stop offset="0%" stop-color="#34D399"/>
      <stop offset="100%" stop-color="#059669"/>
    </linearGradient>
    <linearGradient id="moneyGrad" x1="0" y1="0" x2="1" y2="0">
      <stop offset="0%" stop-color="#86EFAC"/>
      <stop offset="100%" stop-color="#4ADE80"/>
    </linearGradient>
  </defs>
  <!-- Bills sticking out -->
  <rect x="14" y="14" width="36" height="18" rx="3" fill="url(#moneyGrad)" stroke="#22C55E" stroke-width="1" transform="rotate(-5, 32, 22)"/>
  <rect x="16" y="16" width="36" height="18" rx="3" fill="#A7F3D0" stroke="#22C55E" stroke-width="1" transform="rotate(3, 32, 24)"/>
  <!-- Dollar signs on bills -->
  <text x="30" y="28" font-family="Arial" font-weight="bold" font-size="10" fill="#059669" transform="rotate(-5, 30, 26)">$</text>
  <text x="36" y="30" font-family="Arial" font-weight="bold" font-size="10" fill="#059669" transform="rotate(3, 36, 28)">$</text>
  <!-- Wallet body -->
  <path d="M8 28 L8 52 Q8 56 12 56 L52 56 Q56 56 56 52 L56 28 Q56 24 52 24 L12 24 Q8 24 8 28 Z" fill="url(#walletGrad)" stroke="#047857" stroke-width="1.5"/>
  <!-- Wallet flap -->
  <path d="M8 28 Q8 24 12 24 L52 24 Q56 24 56 28 L56 34 Q50 36 44 36 Q38 36 36 32 Q34 28 28 32 L8 34 Z" fill="#10B981" stroke="#047857" stroke-width="1"/>
  <!-- Clasp -->
  <circle cx="46" cy="36" r="4" fill="#FCD34D" stroke="#D97706" stroke-width="1.5"/>
  <circle cx="46" cy="36" r="1.5" fill="#D97706"/>
</svg>