<?xml version="1.0" encoding="UTF-8"?>
<svg xmlns="http://www.w3.org/2000/svg" viewBox="0 0 64 64" width="64" height="64">
  <defs>
    <linearGradient id="shopGrad" x1="0" y1="0" x2="0" y2="1">
      <stop offset="0%" stop-color="#F472B6"/>
      <stop offset="100%" stop-color="#DB2777"/>
    </linearGradient>
  </defs>
  <!-- Bag body -->
  <path d="M14 22 L12 54 Q12 56 14 56 L50 56 Q52 56 52 54 L50 22 Z" fill="url(#shopGrad)" stroke="#BE185D" stroke-width="1.5" stroke-linejoin="round"/>
  <!-- Bag fold/top -->
  <path d="M14 22 L50 22" stroke="#BE185D" stroke-width="2" stroke-linecap="round"/>
  <!-- Handles -->
  <path d="M22 22 Q22 10 32 10 Q42 10 42 22" fill="none" stroke="#BE185D" stroke-width="3" stroke-linecap="round"/>
  <!-- Heart -->
  <path d="M32 36 Q32 30 27 30 Q22 30 22 36 Q22 42 32 48 Q42 42 42 36 Q42 30 37 30 Q32 30 32 36 Z" fill="white" opacity="0.9"/>
  <!-- Shine on bag -->
  <path d="M16 26 L17 48" stroke="white" stroke-width="1.5" stroke-linecap="round" opacity="0.3"/>
</svg>