<?xml version="1.0" encoding="UTF-8"?>
<svg xmlns="http://www.w3.org/2000/svg" viewBox="0 0 64 64" width="64" height="64">
  <defs>
    <linearGradient id="subGrad" x1="0" y1="0" x2="1" y2="1">
      <stop offset="0%" stop-color="#8B5CF6"/>
      <stop offset="100%" stop-color="#6D28D9"/>
    </linearGradient>
    <linearGradient id="subGrad2" x1="0" y1="0" x2="1" y2="1">
      <stop offset="0%" stop-color="#60A5FA"/>
      <stop offset="100%" stop-color="#2563EB"/>
    </linearGradient>
  </defs>
  <!-- Circular arrow top (clockwise) -->
  <path d="M32 8 A24 24 0 0 1 54 38" fill="none" stroke="url(#subGrad)" stroke-width="4" stroke-linecap="round"/>
  <!-- Arrow head top -->
  <path d="M50 32 L54 38 L48 40" fill="none" stroke="url(#subGrad)" stroke-width="3.5" stroke-linecap="round" stroke-linejoin="round"/>
  <!-- Circular arrow bottom (counter-clockwise) -->
  <path d="M32 56 A24 24 0 0 1 10 26" fill="none" stroke="url(#subGrad2)" stroke-width="4" stroke-linecap="round"/>
  <!-- Arrow head bottom -->
  <path d="M14 32 L10 26 L16 24" fill="none" stroke="url(#subGrad2)" stroke-width="3.5" stroke-linecap="round" stroke-linejoin="round"/>
  <!-- Center star -->
  <path d="M32 22 L34.5 28 L41 29 L36 33.5 L37.5 40 L32 37 L26.5 40 L28 33.5 L23 29 L29.5 28 Z" fill="#FCD34D" stroke="#D97706" stroke-width="1" stroke-linejoin="round"/>
</svg>