<?xml version="1.0" encoding="UTF-8"?>
<svg xmlns="http://www.w3.org/2000/svg" viewBox="0 0 64 64" width="64" height="64">
  <defs>
    <linearGradient id="carGrad" x1="0" y1="0" x2="1" y2="1">
      <stop offset="0%" stop-color="#60A5FA"/>
      <stop offset="100%" stop-color="#2563EB"/>
    </linearGradient>
  </defs>
  <!-- Car body -->
  <path d="M8 38 L8 44 Q8 46 10 46 L16 46 Q17 42 21 42 Q25 42 26 46 L38 46 Q39 42 43 42 Q47 42 48 46 L54 46 Q56 46 56 44 L56 38 Q56 34 52 34 L48 28 Q46 24 42 24 L24 24 Q20 24 18 28 L14 34 Q8 34 8 38 Z" fill="url(#carGrad)"/>
  <!-- Windshield -->
  <path d="M20 28 L18 34 L30 34 L30 26 L24 26 Q22 26 20 28 Z" fill="#DBEAFE" stroke="#93C5FD" stroke-width="0.8"/>
  <!-- Rear window -->
  <path d="M34 26 L34 34 L46 34 L44 28 Q43 26 40 26 Z" fill="#DBEAFE" stroke="#93C5FD" stroke-width="0.8"/>
  <!-- Front wheel -->
  <circle cx="21" cy="46" r="5" fill="#1E3A5F" stroke="#60A5FA" stroke-width="1.5"/>
  <circle cx="21" cy="46" r="2" fill="#93C5FD"/>
  <!-- Rear wheel -->
  <circle cx="43" cy="46" r="5" fill="#1E3A5F" stroke="#60A5FA" stroke-width="1.5"/>
  <circle cx="43" cy="46" r="2" fill="#93C5FD"/>
  <!-- Headlight -->
  <ellipse cx="55" cy="38" rx="2" ry="2.5" fill="#FCD34D"/>
  <!-- Taillight -->
  <rect x="7" y="36" width="2.5" height="4" rx="1" fill="#EF4444"/>
  <!-- Road line -->
  <line x1="4" y1="53" x2="60" y2="53" stroke="#CBD5E1" stroke-width="1.5" stroke-linecap="round" stroke-dasharray="6 4"/>
</svg>