<?xml version="1.0" encoding="UTF-8"?>
<svg xmlns="http://www.w3.org/2000/svg" viewBox="0 0 64 64" width="64" height="64">
  <defs>
    <linearGradient id="skyGrad" x1="0" y1="0" x2="0" y2="1">
      <stop offset="0%" stop-color="#BAE6FD"/>
      <stop offset="100%" stop-color="#E0F2FE"/>
    </linearGradient>
    <linearGradient id="planeGrad" x1="0" y1="0" x2="1" y2="1">
      <stop offset="0%" stop-color="#38BDF8"/>
      <stop offset="100%" stop-color="#0284C7"/>
    </linearGradient>
  </defs>
  <!-- Sky bg circle -->
  <circle cx="32" cy="32" r="30" fill="url(#skyGrad)"/>
  <!-- Airplane body -->
  <path d="M10 36 L22 34 L28 28 L38 26 L32 34 L50 30 Q56 28 56 32 Q56 36 50 36 L32 36 L38 44 L28 40 L22 36 Z" fill="url(#planeGrad)" stroke="#0369A1" stroke-width="1.2" stroke-linejoin="round"/>
  <!-- Wing detail -->
  <path d="M26 30 L34 28" stroke="white" stroke-width="1" stroke-linecap="round" opacity="0.5"/>
  <!-- Tail fin -->
  <path d="M12 36 L10 28 L18 32" fill="#0EA5E9" stroke="#0369A1" stroke-width="1" stroke-linejoin="round"/>
  <!-- Window dots -->
  <circle cx="36" cy="32" r="1.2" fill="white" opacity="0.7"/>
  <circle cx="40" cy="31.5" r="1.2" fill="white" opacity="0.7"/>
  <circle cx="44" cy="31" r="1.2" fill="white" opacity="0.7"/>
  <!-- Contrail -->
  <path d="M10 36 Q4 38 2 40" stroke="white" stroke-width="2" stroke-linecap="round" opacity="0.4"/>
  <path d="M10 38 Q5 42 2 46" stroke="white" stroke-width="1.5" stroke-linecap="round" opacity="0.3"/>
  <!-- Cloud puffs -->
  <ellipse cx="48" cy="48" rx="8" ry="4" fill="white" opacity="0.6"/>
  <ellipse cx="14" cy="50" rx="6" ry="3" fill="white" opacity="0.5"/>
</svg>