<?xml version="1.0" encoding="UTF-8"?>
<svg xmlns="http://www.w3.org/2000/svg" viewBox="0 0 240 180" width="240" height="180">
  <defs>
    <linearGradient id="emptyBg4" x1="0" y1="0" x2="0" y2="1">
      <stop offset="0%" stop-color="#FFFBEB"/>
      <stop offset="100%" stop-color="#FEF3C7"/>
    </linearGradient>
  </defs>
  <rect width="240" height="180" rx="16" fill="url(#emptyBg4)"/>
  <!-- Outer circle (pie chart) dashed -->
  <circle cx="120" cy="85" r="55" fill="none" stroke="#FCD34D" stroke-width="2.5" stroke-dasharray="8 5" opacity="0.6"/>
  <!-- Pie slice 1 (present but faint) -->
  <path d="M120 85 L120 30 A55 55 0 0 1 167 60 Z" fill="#FDBA74" opacity="0.2" stroke="#FB923C" stroke-width="1" stroke-dasharray="4 3"/>
  <!-- Pie slice 2 (present but faint) -->
  <path d="M120 85 L167 60 A55 55 0 0 1 170 100 Z" fill="#FCD34D" opacity="0.2" stroke="#F59E0B" stroke-width="1" stroke-dasharray="4 3"/>
  <!-- Missing slice indicator (gap with dashes) -->
  <path d="M120 85 L170 100 A55 55 0 0 1 95 132 Z" fill="none" stroke="#D1D5DB" stroke-width="1.5" stroke-dasharray="5 4" opacity="0.5"/>
  <!-- Another missing slice -->
  <path d="M120 85 L95 132 A55 55 0 0 1 70 70 Z" fill="none" stroke="#D1D5DB" stroke-width="1.5" stroke-dasharray="5 4" opacity="0.5"/>
  <!-- Small remaining slice -->
  <path d="M120 85 L70 70 A55 55 0 0 1 120 30 Z" fill="#FDE68A" opacity="0.2" stroke="#FBBF24" stroke-width="1" stroke-dasharray="4 3"/>
  <!-- Center circle -->
  <circle cx="120" cy="85" r="20" fill="#FFFBEB" stroke="#FCD34D" stroke-width="1.5" stroke-dasharray="4 3" opacity="0.6"/>
  <!-- Question mark in center -->
  <text x="120" y="92" text-anchor="middle" font-family="Arial" font-weight="bold" font-size="18" fill="#F59E0B" opacity="0.4">%</text>
  <!-- Legend dots (empty) -->
  <g opacity="0.4">
    <circle cx="52" cy="155" r="4" fill="none" stroke="#FDBA74" stroke-width="1.5"/>
    <line x1="60" y1="155" x2="82" y2="155" stroke="#D1D5DB" stroke-width="2" stroke-linecap="round" stroke-dasharray="3 2"/>
    <circle cx="100" cy="155" r="4" fill="none" stroke="#FCD34D" stroke-width="1.5"/>
    <line x1="108" y1="155" x2="130" y2="155" stroke="#D1D5DB" stroke-width="2" stroke-linecap="round" stroke-dasharray="3 2"/>
    <circle cx="148" cy="155" r="4" fill="none" stroke="#D1D5DB" stroke-width="1.5"/>
    <line x1="156" y1="155" x2="178" y2="155" stroke="#D1D5DB" stroke-width="2" stroke-linecap="round" stroke-dasharray="3 2"/>
  </g>
  <text x="120" y="172" text-anchor="middle" font-family="Arial" font-size="11" fill="#F59E0B" opacity="0.6">No budgets created</text>
</svg>