<svg xmlns="http://www.w3.org/2000/svg" viewBox="0 0 120 120">
  <defs>
    <linearGradient id="errorGrad" x1="0%" y1="0%" x2="0%" y2="100%">
      <stop offset="0%" stop-color="#FF7043"/>
      <stop offset="100%" stop-color="#E53935"/>
    </linearGradient>
  </defs>
  <!-- X marks -->
  <g opacity="0.4" stroke="#EF5350" stroke-width="2" stroke-linecap="round">
    <line x1="18" y1="18" x2="24" y2="24"/><line x1="24" y1="18" x2="18" y2="24"/>
    <line x1="96" y1="14" x2="102" y2="20"/><line x1="102" y1="14" x2="96" y2="20"/>
    <line x1="10" y1="85" x2="16" y2="91"/><line x1="16" y1="85" x2="10" y2="91"/>
    <line x1="104" y1="90" x2="110" y2="96"/><line x1="110" y1="90" x2="104" y2="96"/>
  </g>
  <!-- Triangle -->
  <path d="M60 22 L105 95 Q108 100 103 105 L17 105 Q12 100 15 95 Z" fill="url(#errorGrad)"/>
  <!-- Inner triangle border -->
  <path d="M60 35 L95 93 L25 93 Z" fill="none" stroke="white" stroke-width="1" opacity="0.15"/>
  <!-- Exclamation mark -->
  <rect x="56" y="48" width="8" height="28" rx="4" fill="white"/>
  <circle cx="60" cy="88" r="5" fill="white"/>
  <!-- Small dots -->
  <circle cx="30" cy="108" r="2" fill="#FFAB91" opacity="0.5"/>
  <circle cx="90" cy="110" r="1.5" fill="#FFAB91" opacity="0.4"/>
  <circle cx="60" cy="112" r="2" fill="#FFAB91" opacity="0.3"/>
</svg>