<svg xmlns="http://www.w3.org/2000/svg" viewBox="0 0 120 120">
  <defs>
    <linearGradient id="successGrad" x1="0%" y1="0%" x2="100%" y2="100%">
      <stop offset="0%" stop-color="#66BB6A"/>
      <stop offset="100%" stop-color="#43A047"/>
    </linearGradient>
  </defs>
  <!-- Celebration dots -->
  <circle cx="20" cy="20" r="3" fill="#FFD54F" opacity="0.7"/>
  <circle cx="100" cy="15" r="2.5" fill="#FF8A65" opacity="0.6"/>
  <circle cx="15" cy="90" r="2" fill="#CE93D8" opacity="0.5"/>
  <circle cx="105" cy="95" r="3" fill="#4FC3F7" opacity="0.6"/>
  <circle cx="55" cy="8" r="2" fill="#81C784" opacity="0.7"/>
  <circle cx="8" cy="55" r="2.5" fill="#FFD54F" opacity="0.5"/>
  <circle cx="112" cy="60" r="2" fill="#F06292" opacity="0.6"/>
  <!-- Main circle -->
  <circle cx="60" cy="60" r="40" fill="url(#successGrad)"/>
  <!-- Inner glow -->
  <circle cx="60" cy="60" r="34" fill="none" stroke="white" stroke-width="1" opacity="0.2"/>
  <!-- Checkmark -->
  <path d="M40 60 L53 73 L80 46" fill="none" stroke="white" stroke-width="5" stroke-linecap="round" stroke-linejoin="round"/>
  <!-- Sparkle stars -->
  <path d="M90 25 L92 19 L94 25 L100 27 L94 29 L92 35 L90 29 L84 27 Z" fill="#FFD54F" opacity="0.8"/>
  <path d="M25 100 L27 96 L29 100 L33 101 L29 103 L27 107 L25 103 L21 101 Z" fill="#FFD54F" opacity="0.6"/>
</svg>